<?xml version="1.0" encoding="UTF-8" standalone="no"?>
<!-- Created with Inkscape (http://www.inkscape.org/) -->

<svg
   width="137.47876mm"
   height="137.51625mm"
   viewBox="0 0 137.47876 137.51625"
   version="1.1"
   id="svg5"
   inkscape:version="1.1.2 (b8e25be833, 2022-02-05)"
   sodipodi:docname="logo_slices.svg"
   xmlns:inkscape="http://www.inkscape.org/namespaces/inkscape"
   xmlns:sodipodi="http://sodipodi.sourceforge.net/DTD/sodipodi-0.dtd"
   xmlns="http://www.w3.org/2000/svg"
   xmlns:svg="http://www.w3.org/2000/svg">
  <sodipodi:namedview
     id="namedview7"
     pagecolor="#ffffff"
     bordercolor="#666666"
     borderopacity="1.0"
     inkscape:pageshadow="2"
     inkscape:pageopacity="0.0"
     inkscape:pagecheckerboard="0"
     inkscape:document-units="mm"
     showgrid="false"
     inkscape:zoom="0.7198092"
     inkscape:cx="89.607079"
     inkscape:cy="302.16341"
     inkscape:window-width="1920"
     inkscape:window-height="1001"
     inkscape:window-x="-9"
     inkscape:window-y="-9"
     inkscape:window-maximized="1"
     inkscape:current-layer="layer1"
     objecttolerance="10000"
     fit-margin-top="0"
     fit-margin-left="0"
     fit-margin-right="0"
     fit-margin-bottom="0" />
  <defs
     id="defs2">
    <clipPath
       clipPathUnits="userSpaceOnUse"
       id="clipPath940">
      <rect
         style="fill:#0000ff;fill-rule:evenodd;stroke-width:0.264583"
         id="rect942"
         width="161.66667"
         height="165.30545"
         x="26.51125"
         y="61.859592" />
    </clipPath>
  </defs>
  <g
     inkscape:label="Capa 1"
     inkscape:groupmode="layer"
     id="layer1"
     transform="translate(-36.66785,-66.526277)">
    <path
       style="fill:#f0ee00;stroke-width:0.264583;fill-opacity:1"
       d="m 99.231302,203.75638 c -6.51981,-0.7487 -12.30069,-2.03754 -17.10353,-3.81322 -3.69766,-1.36707 -4.3242,-1.64198 -8.030409,-3.52349 -18.342724,-9.31196 -31.967163,-27.12613 -35.94876,-47.00359 -1.972469,-9.84723 -1.974234,-18.37373 -0.0059,-28.31042 0.288264,-1.45521 0.623715,-2.94349 0.745447,-3.30729 0.121732,-0.36381 0.37229,-1.19724 0.556795,-1.85209 4.332236,-15.37594 14.782525,-29.371133 28.697782,-38.432513 7.433085,-4.84031 17.435825,-8.74676 25.664585,-10.02302 9.259058,-1.43604 16.713038,-1.27981 26.000988,0.54497 9.02377,1.77287 18.80124,6.24131 26.91567,12.30082 3.86363,2.8852 10.58785,9.54943 13.33535,13.21638 14.42503,19.252363 17.99258,43.544023 9.68082,65.917323 -7.34132,19.76109 -24.33699,35.64552 -44.57072,41.6565 -8.11271,2.4101 -18.59537,3.47285 -25.938148,2.62964 z m 2.455188,-9.55316 c 0.73917,-0.31641 1.7453,-1.076 2.42166,-1.82828 0.63641,-0.70784 1.26764,-1.28699 1.40272,-1.28699 0.13508,0 0.41041,0.30795 0.61184,0.68433 0.38577,0.72082 1.78423,1.89241 2.89818,2.42803 1.39735,0.67187 3.14795,0.87346 4.97427,0.57279 10.0945,-1.66184 18.91123,-5.2949 27.07053,-11.15477 2.88599,-2.07268 4.09391,-4.36381 3.83859,-7.2809 l -0.14473,-1.65364 h 2.09426 c 3.90113,0 5.44321,-1.2139 9.38794,-7.39003 1.94843,-3.05057 4.16905,-7.58777 5.67938,-11.60415 1.43323,-3.81133 3.19142,-11.46871 3.19142,-13.89944 0,-1.72293 -0.81304,-3.41273 -2.41226,-5.01359 l -1.52543,-1.52699 1.5478,-1.51572 c 1.2166,-1.19137 1.6379,-1.82323 1.96885,-2.9528 0.51292,-1.75067 0.51785,-2.45983 0.036,-5.17749 -1.73979,-9.81251 -5.11369,-17.85716 -10.77948,-25.702343 -2.27537,-3.15061 -3.85786,-4.06329 -7.04528,-4.06329 h -2.04531 l 0.007,-2.06857 c 0.006,-1.78793 -0.10108,-2.28047 -0.79121,-3.63047 -0.85592,-1.67433 -1.69792,-2.4255 -5.68384,-5.07076 -7.06777,-4.69051 -15.44185,-7.88104 -24.50423,-9.33612 -1.5464,-0.24829 -2.15298,-0.23157 -3.3986,0.0937 -1.78674,0.46658 -3.43994,1.54145 -4.21667,2.74157 -0.3061,0.47296 -0.6606,0.86139 -0.78777,0.8632 -0.12718,0.002 -0.70722,-0.53749 -1.289,-1.19842 -1.99854,-2.27046 -4.12881,-2.92329 -7.731828,-2.36945 -3.737,0.57443 -5.33342,0.93398 -8.60732,1.93853 -5.83405,1.7901 -10.07223,3.80544 -15.596682,7.41652 -5.164251,3.37564 -6.209987,4.79116 -6.264055,8.47909 l -0.03261,2.22446 -2.044475,-0.0597 c -1.74436,-0.0509 -2.253183,0.0424 -3.4663,0.63594 -0.782006,0.3826 -1.84897,1.19439 -2.371027,1.80399 -2.530911,2.955283 -6.621012,10.023173 -8.450054,14.602103 -1.944959,4.86912 -3.451969,10.83679 -3.75701,14.87753 -0.157224,2.08266 -0.126827,2.25381 0.697791,3.92885 0.623536,1.26658 1.183563,1.97786 2.023301,2.56976 0.638619,0.45014 1.161125,0.89166 1.161125,0.98116 0,0.0895 -0.522506,0.53101 -1.161125,0.98115 -0.839836,0.59197 -1.399769,1.30319 -2.023578,2.57033 -0.834083,1.69426 -0.856861,1.82786 -0.692431,4.06114 0.558736,7.58872 4.294212,17.706 9.365003,25.36446 2.617361,3.95303 3.527305,4.96401 5.208005,5.7863 1.213117,0.59352 1.72194,0.68688 3.4663,0.63594 l 2.044475,-0.0597 0.03261,2.22445 c 0.03875,2.64332 0.7199,4.26 2.411648,5.72397 1.328288,1.14945 6.313831,4.43724 8.619769,5.68443 5.03485,2.72317 11.73289,5.09973 16.91474,6.0016 0.94588,0.16462 2.25557,0.40853 2.91041,0.54202 1.52941,0.31176 3.242498,0.10854 4.836438,-0.57375 z m -4.968728,-4.48265 c -8.4529,-1.57497 -15.17325,-4.2336 -21.760916,-8.60881 -3.402153,-2.25955 -4.035957,-2.93135 -4.035957,-4.27791 0,-0.90601 0.663371,-1.61694 13.298243,-14.25182 12.74052,-12.74052 13.33912,-13.29825 14.27275,-13.29825 0.64863,0 1.22274,0.21351 1.716858,0.63847 l 0.74236,0.63846 0.0795,18.34539 c 0.056,12.91754 -0.008,18.64502 -0.21521,19.35809 -0.22527,0.77409 -0.50694,1.10137 -1.195488,1.38906 -0.99687,0.41652 -1.02456,0.41716 -2.90215,0.0673 z m 14.360298,-0.10338 c -0.39652,-0.21519 -0.84301,-0.61931 -0.99219,-0.89806 -0.40632,-0.75922 -0.37122,-37.43032 0.0366,-38.19597 0.47723,-0.89604 1.05652,-1.22181 2.18891,-1.23096 1.02413,-0.008 1.25497,0.20452 13.83948,12.75773 7.03889,7.02138 13.04178,13.1575 13.33976,13.63581 0.77856,1.24975 0.49725,2.43971 -0.82415,3.48629 -4.11949,3.26269 -10.70134,6.70666 -16.28409,8.52069 -2.03478,0.66117 -5.44702,1.47879 -8.17555,1.95899 -2.53555,0.44624 -2.23677,0.44953 -3.12874,-0.0345 z M 61.197177,168.04944 c -4.395474,-5.62252 -8.188539,-14.07386 -9.738151,-21.6976 -0.83645,-4.11515 -0.835957,-5.10471 0.003,-5.94362 l 0.649431,-0.64944 h 19.015905 19.01591 l 0.60174,0.64053 c 0.76402,0.81326 0.79289,2.24722 0.0654,3.25022 -0.29497,0.40671 -6.23552,6.4247 -13.20123,13.37332 L 64.944211,169.6567 H 63.69892 c -1.209439,0 -1.281462,-0.0463 -2.501783,-1.60726 z m 71.576553,-11.55187 c -13.74802,-13.73784 -13.94487,-13.96709 -13.19546,-15.36738 0.77934,-1.45621 -0.46376,-1.37141 20.10329,-1.37141 18.70186,0 18.98969,0.008 19.55707,0.53649 1.02015,0.95042 0.99738,1.82285 -0.20133,7.71392 -1.16488,5.72476 -5.52346,15.01843 -9.41559,20.07654 -1.17058,1.52126 -1.24792,1.57097 -2.44396,1.57097 h -1.23513 z m -28.80606,-10.15218 c -0.42219,-0.45196 -0.76762,-0.91849 -0.76762,-1.03676 0,-0.11826 -0.42727,-0.47909 -0.94948,-0.80184 -0.82064,-0.50718 -1.18386,-0.56493 -2.676488,-0.42554 -2.72096,0.25408 -3.53588,-0.49988 -2.9617,-2.74019 0.29198,-1.13924 0.27298,-1.41763 -0.16269,-2.38377 -0.29814,-0.66114 -0.93235,-1.39599 -1.60315,-1.8575 -1.10964,-0.76346 -1.58028,-1.68442 -1.27171,-2.48855 0.0901,-0.2349 0.66287,-0.7704 1.27274,-1.18999 1.55516,-1.06998 2.18297,-2.52377 1.80436,-4.17829 -0.22329,-0.97578 -0.20625,-1.39345 0.0794,-1.94584 0.4811,-0.93035 0.85521,-1.04223 2.85932,-0.85508 2.006318,0.18735 2.973458,-0.25128 4.011028,-1.81915 1.1525,-1.74155 2.4637,-1.67386 3.78113,0.19519 1.0561,1.49829 1.8268,1.80507 4.0383,1.60742 1.52585,-0.13637 1.81177,-0.0874 2.33497,0.40006 0.54675,0.50937 0.58248,0.7122 0.43071,2.44486 -0.14259,1.62778 -0.0901,2.0099 0.3794,2.75964 0.29969,0.47863 0.96134,1.11594 1.47033,1.41625 0.98025,0.57836 1.34652,1.40532 1.08461,2.44883 -0.0875,0.34885 -0.57563,0.87998 -1.08461,1.18029 -0.50899,0.3003 -1.17064,0.93762 -1.47033,1.41625 -0.4665,0.74501 -0.52188,1.13672 -0.38488,2.72231 0.23439,2.71271 0.0276,2.91042 -3.04367,2.91042 -2.6826,0 -2.25456,-0.22839 -4.41185,2.35404 -0.79388,0.95034 -1.79102,0.90223 -2.75813,-0.13306 z M 53.89736,130.79388 c -3.340081,-0.26279 -3.592139,-0.94753 -2.438334,-6.62398 1.556008,-7.65521 5.324536,-16.05188 9.738151,-21.69761 1.220321,-1.56099 1.292344,-1.60726 2.501783,-1.60726 h 1.245291 l 12.664931,12.63386 c 6.9657,6.94862 12.90626,12.96661 13.20123,13.37331 0.77043,1.06226 0.70398,2.46747 -0.15743,3.32911 l -0.69375,0.69393 -16.993651,0.0309 c -9.346506,0.017 -17.927207,-0.0425 -19.068221,-0.13229 z m 68.08811,0.0553 c -1.89636,-0.20977 -2.87657,-1.34379 -2.52907,-2.92594 0.11925,-0.54296 3.89966,-4.48841 13.32635,-13.90811 l 13.15987,-13.15012 h 1.14444 c 0.94603,0 1.28138,0.1466 1.93435,0.8456 2.57985,2.76175 6.82823,10.70541 8.64131,16.1576 1.14646,3.44756 1.33205,4.19723 2.06089,8.32455 0.47729,2.70278 0.28444,3.76051 -0.79891,4.38185 -0.42117,0.24155 -4.93057,0.32757 -18.28611,0.34881 -9.74989,0.0155 -18.1438,-0.0179 -18.65312,-0.0742 z M 84.219132,107.9397 C 71.58426,95.304827 70.920889,94.593887 70.920889,93.687877 c 0,-1.33151 0.631759,-2.01496 3.8378,-4.15183 6.546783,-4.36352 14.271933,-7.43819 21.716453,-8.6433 2.94866,-0.47732 3.890348,-0.18121 4.340258,1.3648 0.20752,0.71306 0.27119,6.44054 0.21521,19.358083 l -0.0795,18.34539 -0.74236,0.63847 c -0.494118,0.42496 -1.068228,0.63846 -1.716858,0.63846 -0.93363,0 -1.53223,-0.55772 -14.27275,-13.29825 z m 26.714418,13.12117 c -0.18496,-0.0744 -0.51238,-0.47583 -0.7276,-0.89202 -0.33444,-0.64674 -0.39131,-3.45275 -0.39131,-19.30807 0,-12.782933 0.0889,-18.717473 0.28588,-19.085543 0.54322,-1.01503 1.72133,-1.27201 4.07974,-0.88992 8.77515,1.42167 17.17012,4.96441 24.0011,10.12864 1.72865,1.30686 2.13796,2.34818 1.44151,3.66737 -0.2206,0.41786 -6.21921,6.564043 -13.33025,13.658183 -12.79219,12.7618 -12.94024,12.89822 -13.97596,12.87755 -0.57575,-0.0115 -1.19815,-0.0818 -1.38311,-0.15619 z"
       id="path1136" />
  </g>
</svg>
